<?xml version="1.0" encoding="UTF-8" standalone="no"?>
<!-- Created with Inkscape (http://www.inkscape.org/) -->

<svg
   width="297mm"
   height="297mm"
   viewBox="0 0 297 297"
   version="1.1"
   id="svg1"
   xml:space="preserve"
   inkscape:version="1.4.3 (0d15f75042, 2025-12-25)"
   sodipodi:docname="Start Bloom.svg"
   xmlns:inkscape="http://www.inkscape.org/namespaces/inkscape"
   xmlns:sodipodi="http://sodipodi.sourceforge.net/DTD/sodipodi-0.dtd"
   xmlns:xlink="http://www.w3.org/1999/xlink"
   xmlns="http://www.w3.org/2000/svg"
   xmlns:svg="http://www.w3.org/2000/svg"><sodipodi:namedview
     id="namedview1"
     pagecolor="#ffffff"
     bordercolor="#000000"
     borderopacity="0.25"
     inkscape:showpageshadow="2"
     inkscape:pageopacity="0.0"
     inkscape:pagecheckerboard="0"
     inkscape:deskcolor="#d1d1d1"
     inkscape:document-units="mm"
     inkscape:zoom="0.3535534"
     inkscape:cx="647.70979"
     inkscape:cy="479.41838"
     inkscape:window-width="1512"
     inkscape:window-height="762"
     inkscape:window-x="0"
     inkscape:window-y="0"
     inkscape:window-maximized="0"
     inkscape:current-layer="layer2" /><defs
     id="defs1"><linearGradient
       id="linearGradient28"
       inkscape:collect="always"><stop
         style="stop-color:#5a0045;stop-opacity:1;"
         offset="0"
         id="stop27" /><stop
         style="stop-color:#d480ca;stop-opacity:1;"
         offset="0.71420145"
         id="stop28" /></linearGradient><linearGradient
       id="linearGradient19"
       inkscape:collect="always"><stop
         style="stop-color:#990076;stop-opacity:1;"
         offset="0"
         id="stop19" /><stop
         style="stop-color:#ffa3f1;stop-opacity:1;"
         offset="0.71420145"
         id="stop20" /></linearGradient><linearGradient
       id="swatch17"><stop
         style="stop-color:#000000;stop-opacity:1;"
         offset="0"
         id="stop17" /><stop
         style="stop-color:#ffffff;stop-opacity:1;"
         offset="0.80164278"
         id="stop18" /></linearGradient><inkscape:path-effect
       effect="powerclip"
       message=""
       id="path-effect64"
       is_visible="true"
       lpeversion="1"
       inverse="true"
       flatten="false"
       hide_clip="false" /><linearGradient
       id="linearGradient50"
       inkscape:collect="always"><stop
         style="stop-color:#ff7aee;stop-opacity:1;"
         offset="0.32021379"
         id="stop50" /><stop
         style="stop-color:#ffe3f9;stop-opacity:1;"
         offset="1"
         id="stop51" /></linearGradient><linearGradient
       id="linearGradient43"
       inkscape:collect="always"><stop
         style="stop-color:#b7008c;stop-opacity:1;"
         offset="0"
         id="stop43" /><stop
         style="stop-color:#ff5fe0;stop-opacity:1;"
         offset="0.55212665"
         id="stop44" /></linearGradient><inkscape:path-effect
       effect="powerclip"
       message=""
       id="path-effect20"
       is_visible="true"
       lpeversion="1"
       inverse="true"
       flatten="false"
       hide_clip="false" /><filter
       id="mask-powermask-path-effect4_inverse"
       inkscape:label="filtermask-powermask-path-effect4"
       style="color-interpolation-filters:sRGB"
       height="100"
       width="100"
       x="-50"
       y="-50"><feColorMatrix
         id="mask-powermask-path-effect4_primitive1"
         values="1"
         type="saturate"
         result="fbSourceGraphic" /><feColorMatrix
         id="mask-powermask-path-effect4_primitive2"
         values="-1 0 0 0 1 0 -1 0 0 1 0 0 -1 0 1 0 0 0 1 0 "
         in="fbSourceGraphic" /></filter><filter
       id="mask-powermask-path-effect10_inverse"
       inkscape:label="filtermask-powermask-path-effect10"
       style="color-interpolation-filters:sRGB"
       height="100"
       width="100"
       x="-50"
       y="-50"><feColorMatrix
         id="mask-powermask-path-effect10_primitive1"
         values="1"
         type="saturate"
         result="fbSourceGraphic" /><feColorMatrix
         id="mask-powermask-path-effect10_primitive2"
         values="-1 0 0 0 1 0 -1 0 0 1 0 0 -1 0 1 0 0 0 1 0 "
         in="fbSourceGraphic" /></filter><clipPath
       clipPathUnits="userSpaceOnUse"
       id="clipPath20"><path
         id="lpe_path-effect20"
         style="fill:#f70062;fill-opacity:0.657146;stroke-width:0.410689"
         class="powerclip"
         d="M 42.117393,42.206535 H 263.34586 V 263.47314 H 42.117393 Z m 98.672687,5.004101 v 93.597314 h 24.02735 V 47.210636 Z m 24.03129,117.646984 h 93.6157 v -24.02734 h -93.6157 z m -24.03129,-24.0466 v 24.01656 h 24.02735 v -24.01656 z m -93.619632,24.0466 H 140.79135 V 140.83028 H 47.170448 Z m 93.619632,-0.0294 v 93.64909 h 24.02735 v -93.64909 z" /></clipPath><linearGradient
       inkscape:collect="always"
       xlink:href="#linearGradient43"
       id="linearGradient44"
       x1="190.70946"
       y1="251.60626"
       x2="114.91183"
       y2="54.146698"
       gradientUnits="userSpaceOnUse" /><filter
       id="mask-powermask-path-effect50_inverse"
       inkscape:label="filtermask-powermask-path-effect50"
       style="color-interpolation-filters:sRGB"
       height="100"
       width="100"
       x="-50"
       y="-50"><feColorMatrix
         id="mask-powermask-path-effect50_primitive1"
         values="1"
         type="saturate"
         result="fbSourceGraphic" /><feColorMatrix
         id="mask-powermask-path-effect50_primitive2"
         values="-1 0 0 0 1 0 -1 0 0 1 0 0 -1 0 1 0 0 0 1 0 "
         in="fbSourceGraphic" /></filter><filter
       id="mask-powermask-path-effect52_inverse"
       inkscape:label="filtermask-powermask-path-effect52"
       style="color-interpolation-filters:sRGB"
       height="100"
       width="100"
       x="-50"
       y="-50"><feColorMatrix
         id="mask-powermask-path-effect52_primitive1"
         values="1"
         type="saturate"
         result="fbSourceGraphic" /><feColorMatrix
         id="mask-powermask-path-effect52_primitive2"
         values="-1 0 0 0 1 0 -1 0 0 1 0 0 -1 0 1 0 0 0 1 0 "
         in="fbSourceGraphic" /></filter><filter
       id="mask-powermask-path-effect54_inverse"
       inkscape:label="filtermask-powermask-path-effect54"
       style="color-interpolation-filters:sRGB"
       height="100"
       width="100"
       x="-50"
       y="-50"><feColorMatrix
         id="mask-powermask-path-effect54_primitive1"
         values="1"
         type="saturate"
         result="fbSourceGraphic" /><feColorMatrix
         id="mask-powermask-path-effect54_primitive2"
         values="-1 0 0 0 1 0 -1 0 0 1 0 0 -1 0 1 0 0 0 1 0 "
         in="fbSourceGraphic" /></filter><filter
       id="mask-powermask-path-effect55_inverse"
       inkscape:label="filtermask-powermask-path-effect55"
       style="color-interpolation-filters:sRGB"
       height="100"
       width="100"
       x="-50"
       y="-50"><feColorMatrix
         id="mask-powermask-path-effect55_primitive1"
         values="1"
         type="saturate"
         result="fbSourceGraphic" /><feColorMatrix
         id="mask-powermask-path-effect55_primitive2"
         values="-1 0 0 0 1 0 -1 0 0 1 0 0 -1 0 1 0 0 0 1 0 "
         in="fbSourceGraphic" /></filter><filter
       id="mask-powermask-path-effect56_inverse"
       inkscape:label="filtermask-powermask-path-effect56"
       style="color-interpolation-filters:sRGB"
       height="100"
       width="100"
       x="-50"
       y="-50"><feColorMatrix
         id="mask-powermask-path-effect56_primitive1"
         values="1"
         type="saturate"
         result="fbSourceGraphic" /><feColorMatrix
         id="mask-powermask-path-effect56_primitive2"
         values="-1 0 0 0 1 0 -1 0 0 1 0 0 -1 0 1 0 0 0 1 0 "
         in="fbSourceGraphic" /></filter><filter
       id="mask-powermask-path-effect57_inverse"
       inkscape:label="filtermask-powermask-path-effect57"
       style="color-interpolation-filters:sRGB"
       height="100"
       width="100"
       x="-50"
       y="-50"><feColorMatrix
         id="mask-powermask-path-effect57_primitive1"
         values="1"
         type="saturate"
         result="fbSourceGraphic" /><feColorMatrix
         id="mask-powermask-path-effect57_primitive2"
         values="-1 0 0 0 1 0 -1 0 0 1 0 0 -1 0 1 0 0 0 1 0 "
         in="fbSourceGraphic" /></filter><filter
       id="mask-powermask-path-effect58_inverse"
       inkscape:label="filtermask-powermask-path-effect58"
       style="color-interpolation-filters:sRGB"
       height="100"
       width="100"
       x="-50"
       y="-50"><feColorMatrix
         id="mask-powermask-path-effect58_primitive1"
         values="1"
         type="saturate"
         result="fbSourceGraphic" /><feColorMatrix
         id="mask-powermask-path-effect58_primitive2"
         values="-1 0 0 0 1 0 -1 0 0 1 0 0 -1 0 1 0 0 0 1 0 "
         in="fbSourceGraphic" /></filter><filter
       id="mask-powermask-path-effect59_inverse"
       inkscape:label="filtermask-powermask-path-effect59"
       style="color-interpolation-filters:sRGB"
       height="100"
       width="100"
       x="-50"
       y="-50"><feColorMatrix
         id="mask-powermask-path-effect59_primitive1"
         values="1"
         type="saturate"
         result="fbSourceGraphic" /><feColorMatrix
         id="mask-powermask-path-effect59_primitive2"
         values="-1 0 0 0 1 0 -1 0 0 1 0 0 -1 0 1 0 0 0 1 0 "
         in="fbSourceGraphic" /></filter><linearGradient
       inkscape:collect="always"
       xlink:href="#linearGradient50"
       id="linearGradient65"
       gradientUnits="userSpaceOnUse"
       x1="195.87332"
       y1="194.57782"
       x2="112.5173"
       y2="-22.572035" /><linearGradient
       inkscape:collect="always"
       xlink:href="#linearGradient28"
       id="linearGradient26"
       x1="96.753326"
       y1="249.42522"
       x2="208.74356"
       y2="55.452435"
       gradientUnits="userSpaceOnUse" /><linearGradient
       inkscape:collect="always"
       xlink:href="#linearGradient19"
       id="linearGradient27"
       gradientUnits="userSpaceOnUse"
       x1="96.753326"
       y1="249.42522"
       x2="208.74356"
       y2="55.452435"
       gradientTransform="translate(0,-7.4083337)" /></defs><g
     inkscape:label="Layer 1"
     inkscape:groupmode="layer"
     id="layer1"
     style="display:none"><g
       id="g32"
       inkscape:label="dows"
       style="fill:url(#linearGradient44);fill-opacity:1"
       clip-path="none"><path
         style="opacity:1;fill:url(#linearGradient44);fill-opacity:1;fill-rule:nonzero;stroke-width:0.800365"
         d="m 140.806,140.825 -93.683,0.0411 V 94.03355 c 0,0 -1.792064,-18.674473 13.261572,-33.570978 C 75.438207,45.566066 93.9645,47.201 93.9645,47.201 h 46.8415 z"
         id="path1"
         sodipodi:nodetypes="ccczccc" /><path
         style="opacity:1;fill:url(#linearGradient44);fill-opacity:1;fill-rule:nonzero;stroke-width:0.800365"
         d="M 164.7231,140.88173 164.682,47.198677 h 46.83255 c 0,0 18.67448,-1.79207 33.57098,13.26158 14.89651,15.05364 13.26157,33.57995 13.26157,33.57995 v 46.841523 z"
         id="path30"
         sodipodi:nodetypes="ccczccc" /><path
         style="opacity:1;fill:url(#linearGradient44);fill-opacity:1;fill-rule:nonzero;stroke-width:0.800365"
         d="m 164.81522,164.84614 93.68308,-0.0411 v 46.83255 c 0,0 1.79208,18.67448 -13.26158,33.57098 -15.05365,14.89651 -33.57997,13.26157 -33.57997,13.26157 h -46.84153 z"
         id="path31"
         sodipodi:nodetypes="ccczccc" /><path
         style="opacity:1;fill:url(#linearGradient44);fill-opacity:1;fill-rule:nonzero;stroke-width:0.800365"
         d="m 140.74676,164.87124 0.0411,93.68305 H 93.954962 c 0,0 -18.67448,1.79208 -33.57098,-13.26158 -14.89651,-15.05365 -13.26157,-33.57996 -13.26157,-33.57996 v -46.84151 z"
         id="path32"
         sodipodi:nodetypes="ccczccc" /></g><path
       style="display:inline;opacity:1;fill:url(#linearGradient65);fill-rule:nonzero;stroke:none;stroke-width:0.800365"
       d="M 47.208842,117.02271 C 47.028804,91.642989 44.624626,75.823852 61.604476,59.257247 c 8.6978,-8.486118 19.130139,-12.224732 38.079492,-12.015144 13.957022,0.15437 25.126462,-0.135376 49.126302,-0.180548 9.73609,-0.01832 32.69194,0.169551 53.4452,4.45e-4 27.56636,-0.224622 32.27068,4.095142 42.41324,12.871672 19.20837,16.621333 12.25676,36.818805 13.71074,70.810738 0.86723,20.27447 -24.00778,-33.381331 -40.52454,-45.171286 C 208.29929,78.752155 196.93274,70.450583 185.30984,72.106962 166.54697,74.780854 159.6957,104.9578 140.93633,107.65619 125.82854,109.82933 113.81857,88.92734 98.579797,89.792038 79.417746,90.879356 47.344989,136.21511 47.208842,117.02271 Z"
       id="path65"
       sodipodi:nodetypes="ssssssssssss" /></g><g
     inkscape:groupmode="layer"
     id="layer2"
     inkscape:label="Layer 2"
     transform="matrix(1.1791357,0,0,1.1791357,-30.00853,-27.702019)"><path
       id="circle7"
       style="fill:url(#linearGradient26);fill-opacity:1;stroke-width:0.725177"
       d="m 152.12095,30.828092 c -22.13729,0.554329 -41.65701,19.233613 -46.099,40.568067 -16.293529,-6.307457 -35.998349,-2.933829 -48.930344,9.051127 -23.753456,19.001933 -18.18383,53.885934 1.610237,71.809574 -5.677746,4.44677 -10.314982,10.49941 -13.219865,18.25315 -19.212074,37.07024 24.056328,79.1131 60.051112,64.21985 1.04651,6.95386 3.93455,13.81011 9.07232,20.06182 22.49413,34.99837 80.63444,18.72493 85.65368,-19.97811 6.55526,2.60834 13.93692,3.56535 21.89738,2.25671 41.7442,-1.99026 56.66865,-60.999 25.10286,-84.48683 13.45591,-10.98246 20.28534,-29.61838 16.39434,-46.71239 C 258.98503,75.88362 225.49536,62.665254 199.98934,71.245264 197.25446,54.017198 184.54091,38.758966 167.71173,33.530253 162.47746,31.537583 157.22955,30.70017 152.12095,30.828092 Z m -1.08107,60.526022 c 0.43601,0.01475 0.87165,0.05107 1.30586,0.110071 5.33645,-0.335807 11.41516,0.474587 14.45958,5.492171 3.36895,5.345274 1.73444,11.853324 2.12545,17.818034 -0.0109,7.56444 -0.0106,15.1289 -0.007,22.6937 11.60784,0.004 23.21553,0.0222 34.82216,0.0744 7.32017,0.50365 12.14287,7.91228 11.1988,14.85956 0.33581,5.33645 -0.47458,11.41517 -5.49217,14.45958 -5.34527,3.36895 -11.85333,1.73444 -17.81804,2.12545 -7.5642,-0.0109 -15.12861,-0.0106 -22.69318,-0.007 -3.9e-4,11.60795 -0.0164,23.21517 -0.0749,34.82165 -0.50365,7.32017 -7.91228,12.14287 -14.85956,11.1988 -5.33645,0.33581 -11.41518,-0.47458 -14.45959,-5.49217 -1.38755,-2.04661 -2.1325,-4.51394 -2.12545,-6.98562 0.0143,-11.17471 0.009,-22.34984 0.002,-33.52509 -11.60642,-3.8e-4 -23.21204,-0.0164 -34.817,-0.0749 -7.320171,-0.50365 -12.142863,-7.91228 -11.198796,-14.85956 -0.335807,-5.33645 0.474592,-11.41517 5.492171,-14.45958 2.046611,-1.38755 4.513955,-2.1325 6.985625,-2.12545 11.17493,0.0143 22.35065,0.009 33.52611,0.002 0.004,-11.60633 0.0217,-23.21241 0.0739,-34.81752 0.47217,-6.862658 7.01353,-11.530123 13.5537,-11.308866 z" /><path
       id="path26"
       style="fill:url(#linearGradient27);fill-opacity:1;stroke-width:0.725177"
       d="m 152.12095,23.419754 c -22.13729,0.554329 -41.65701,19.233613 -46.099,40.568067 -16.293529,-6.307457 -35.998349,-2.933829 -48.930344,9.051127 -23.753456,19.001933 -18.18383,53.885892 1.610237,71.809532 -5.677746,4.44677 -10.314982,10.49941 -13.219865,18.25315 -19.212074,37.07024 24.056328,79.1131 60.051112,64.21985 1.04651,6.95386 3.93455,13.81011 9.07232,20.06182 22.49413,34.99837 80.63444,18.72493 85.65368,-19.97811 6.55526,2.60834 13.93692,3.56535 21.89738,2.25671 41.7442,-1.99026 56.66865,-60.999 25.10286,-84.48683 13.45591,-10.98246 20.28534,-29.61838 16.39434,-46.712381 C 258.98503,68.475282 225.49536,55.256916 199.98934,63.836926 197.25446,46.60886 184.54091,31.350628 167.71173,26.121915 c -5.23427,-1.99267 -10.48218,-2.830083 -15.59078,-2.702161 z m -1.08107,60.526022 c 0.43601,0.01475 0.87165,0.05107 1.30586,0.110071 5.33645,-0.335807 11.41516,0.474587 14.45958,5.492171 3.36895,5.345262 1.73444,11.853282 2.12545,17.817992 -0.0109,7.56444 -0.0106,15.1289 -0.007,22.6937 11.60784,0.004 23.21553,0.0222 34.82216,0.0744 7.32017,0.50365 12.14287,7.91228 11.1988,14.85956 0.33581,5.33645 -0.47458,11.41517 -5.49217,14.45958 -5.34527,3.36895 -11.85333,1.73444 -17.81804,2.12545 -7.5642,-0.0109 -15.12861,-0.0106 -22.69318,-0.007 -3.9e-4,11.60795 -0.0164,23.21517 -0.0749,34.82165 -0.50365,7.32017 -7.91228,12.14287 -14.85956,11.1988 -5.33645,0.33581 -11.41518,-0.47458 -14.45959,-5.49217 -1.38755,-2.04661 -2.1325,-4.51394 -2.12545,-6.98562 0.0143,-11.17471 0.009,-22.34984 0.002,-33.52509 -11.60642,-3.8e-4 -23.21204,-0.0164 -34.817,-0.0749 -7.320171,-0.50365 -12.142863,-7.91228 -11.198796,-14.85956 -0.335807,-5.33645 0.474592,-11.41517 5.492171,-14.45958 2.046611,-1.38755 4.513955,-2.1325 6.985625,-2.12545 11.17493,0.0143 22.35065,0.009 33.52611,0.002 0.004,-11.60633 0.0217,-23.21241 0.0739,-34.817493 0.47217,-6.862643 7.01353,-11.530108 13.5537,-11.308851 z" /></g></svg>
