<?xml version="1.0" encoding="UTF-8" standalone="no"?>
<svg viewBox="0 0 50 50"
 xmlns="http://www.w3.org/2000/svg" xmlns:xlink="http://www.w3.org/1999/xlink" version="1.2" baseProfile="tiny">
<title>Qt SVG Document</title>
<desc>Generated with Qt</desc>
<defs>
</defs>
<g fill="none" stroke="black" stroke-width="1" fill-rule="evenodd" stroke-linecap="square" stroke-linejoin="bevel" >

<g fill="none" stroke="#000000" stroke-opacity="1" stroke-width="1" stroke-linecap="square" stroke-linejoin="bevel" transform="matrix(1,0,0,1,0,0)"
font-family="Pixelify Sans" font-size="12" font-weight="400" font-style="normal" 
>
</g>

<g fill="#ffadf2" fill-opacity="1" stroke="none" transform="matrix(0.0343115,0,0,0.044944,9.37386,46.0566)"
font-family="Pixelify Sans" font-size="12" font-weight="400" font-style="normal" 
opacity="0.603922" >
<path vector-effect="none" fill-rule="evenodd" d="M-273.198,-586.248 C-273.198,-828.429 -78.6201,-1024.76 161.405,-1024.76 L749.434,-1024.76 C989.459,-1024.76 1184.04,-828.429 1184.04,-586.248 L1184.04,-350.768 C1184.04,-108.587 989.459,87.7395 749.434,87.7395 L161.405,87.7395 C-78.6201,87.7395 -273.198,-108.587 -273.198,-350.768 L-273.198,-586.248 Z "/>
</g>

<g fill="#232629" fill-opacity="1" stroke="none" transform="matrix(-0.0242203,0.0318347,-0.0242203,-0.0318347,9.37386,46.0566)"
font-family="Pixelify Sans" font-size="12" font-weight="400" font-style="normal" 
>
<rect x="-1035.59" y="-38.8424" width="767.638" height="83.3849"/>
</g>

<g fill="#232629" fill-opacity="1" stroke="none" transform="matrix(0.0242623,0.0317797,-0.0242623,0.0317797,9.37386,46.0566)"
font-family="Pixelify Sans" font-size="12" font-weight="400" font-style="normal" 
>
<rect x="-388.186" y="-692.337" width="766.308" height="83.2405"/>
</g>

<g fill="none" stroke="#000000" stroke-opacity="1" stroke-width="1" stroke-linecap="square" stroke-linejoin="bevel" transform="matrix(1,0,0,1,0,0)"
font-family="Pixelify Sans" font-size="12" font-weight="400" font-style="normal" 
>
</g>
</g>
</svg>
