<?xml version="1.0" encoding="UTF-8" standalone="no"?>
<svg viewBox="0 0 50 50"
 xmlns="http://www.w3.org/2000/svg" xmlns:xlink="http://www.w3.org/1999/xlink" version="1.2" baseProfile="tiny">
<title>Qt SVG Document</title>
<desc>Generated with Qt</desc>
<defs>
</defs>
<g fill="none" stroke="black" stroke-width="1" fill-rule="evenodd" stroke-linecap="square" stroke-linejoin="bevel" >

<g fill="none" stroke="#000000" stroke-opacity="1" stroke-width="1" stroke-linecap="square" stroke-linejoin="bevel" transform="matrix(1,0,0,1,0,0)"
font-family="Pixelify Sans" font-size="12" font-weight="400" font-style="normal" 
>
</g>

<g fill="#232629" fill-opacity="1" stroke="none" transform="matrix(0.0343117,-1.36331e-06,-2.62485e-07,0.044944,9.14296,45.9506)"
font-family="Pixelify Sans" font-size="12" font-weight="400" font-style="normal" 
>
<rect x="169.148" y="-251.452" width="384.834" height="83.2405"/>
</g>

<g fill="#232629" fill-opacity="1" stroke="none" transform="matrix(-1.0427e-06,-0.044944,0.0343117,3.43195e-07,9.14296,45.9506)"
font-family="Pixelify Sans" font-size="12" font-weight="400" font-style="normal" 
>
<rect x="168.072" y="168.782" width="384.13" height="83.2401"/>
</g>

<g fill="#232629" fill-opacity="1" stroke="none" transform="matrix(-0.0343117,1.36331e-06,2.62485e-07,-0.044944,9.14296,45.9506)"
font-family="Pixelify Sans" font-size="12" font-weight="400" font-style="normal" 
>
<rect x="-759.872" y="669.417" width="384.834" height="83.2405"/>
</g>

<g fill="#232629" fill-opacity="1" stroke="none" transform="matrix(1.0427e-06,0.044944,-0.0343117,-3.43195e-07,9.14296,45.9506)"
font-family="Pixelify Sans" font-size="12" font-weight="400" font-style="normal" 
>
<rect x="-752.832" y="-760.272" width="384.13" height="83.2401"/>
</g>

<g fill="none" stroke="#000000" stroke-opacity="1" stroke-width="1" stroke-linecap="square" stroke-linejoin="bevel" transform="matrix(1,0,0,1,0,0)"
font-family="Pixelify Sans" font-size="12" font-weight="400" font-style="normal" 
>
</g>
</g>
</svg>
